<svg
  viewBox="0 0 24 24"
  [attr.fill]="fill"
  [attr.width]="width"
  [attr.height]="height"
>
  <ng-container [ngSwitch]="type">
    <ng-container *ngSwitchCase="SvgIcon.SEARCH">
      <rect width="24" height="24" opacity="0"/>
      <path d="M20.71 19.29l-3.4-3.39A7.92 7.92 0 0 0 19 11a8 8 0 1 0-8 8 7.92 7.92 0 0 0 4.9-1.69l3.39 3.4a1 1 0 0 0 1.42 0 1 1 0 0 0 0-1.42zM5 11a6 6 0 1 1 6 6 6 6 0 0 1-6-6z"/>
    </ng-container>

    <ng-container *ngSwitchCase="SvgIcon.CLOSE">
      <rect width="24" height="24" transform="rotate(180 12 12)" opacity="0"/>
      <path d="M13.41 12l4.3-4.29a1 1 0 1 0-1.42-1.42L12 10.59l-4.29-4.3a1 1 0 0 0-1.42 1.42l4.3 4.29-4.3 4.29a1 1 0 0 0 0 1.42 1 1 0 0 0 1.42 0l4.29-4.3 4.29 4.3a1 1 0 0 0 1.42 0 1 1 0 0 0 0-1.42z"/>
    </ng-container>

    <ng-container *ngSwitchCase="SvgIcon.STAR">
      <rect width="24" height="24" transform="rotate(90 12 12)" opacity="0"/>
      <path *ngIf="filled" d="M17.56 21a1 1 0 0 1-.46-.11L12 18.22l-5.1 2.67a1 1 0 0 1-1.45-1.06l1-5.63-4.12-4a1 1 0 0 1-.25-1 1 1 0 0 1 .81-.68l5.7-.83 2.51-5.13a1 1 0 0 1 1.8 0l2.54 5.12 5.7.83a1 1 0 0 1 .81.68 1 1 0 0 1-.25 1l-4.12 4 1 5.63a1 1 0 0 1-.4 1 1 1 0 0 1-.62.18z"/>
      <path *ngIf="!filled" d="M17.56 21a1 1 0 0 1-.46-.11L12 18.22l-5.1 2.67a1 1 0 0 1-1.45-1.06l1-5.63-4.12-4a1 1 0 0 1-.25-1 1 1 0 0 1 .81-.68l5.7-.83 2.51-5.13a1 1 0 0 1 1.8 0l2.54 5.12 5.7.83a1 1 0 0 1 .81.68 1 1 0 0 1-.25 1l-4.12 4 1 5.63a1 1 0 0 1-.4 1 1 1 0 0 1-.62.18zM12 16.1a.92.92 0 0 1 .46.11l3.77 2-.72-4.21a1 1 0 0 1 .29-.89l3-2.93-4.2-.62a1 1 0 0 1-.71-.56L12 5.25 10.11 9a1 1 0 0 1-.75.54l-4.2.62 3 2.93a1 1 0 0 1 .29.89l-.72 4.16 3.77-2a.92.92 0 0 1 .5-.04z"/>
    </ng-container>

    <ng-container *ngSwitchCase="SvgIcon.ARROW_LEFT">
      <rect width="24" height="24" transform="rotate(90 12 12)" opacity="0"/>
      <path d="M13.83 19a1 1 0 0 1-.78-.37l-4.83-6a1 1 0 0 1 0-1.27l5-6a1 1 0 0 1 1.54 1.28L10.29 12l4.32 5.36a1 1 0 0 1-.78 1.64z"/>
    </ng-container>

    <ng-container *ngSwitchCase="SvgIcon.ARROW_DOWN">
      <rect width="24" height="24" opacity="0"/>
      <path d="M12 16a1 1 0 0 1-.64-.23l-6-5a1 1 0 1 1 1.28-1.54L12 13.71l5.36-4.32a1 1 0 0 1 1.41.15 1 1 0 0 1-.14 1.46l-6 4.83A1 1 0 0 1 12 16z"/>
    </ng-container>

    <ng-container *ngSwitchCase="SvgIcon.PLAY_RIGHT">
      <rect width="24" height="24" transform="rotate(180 12 12)" opacity="0"/>
      <path d="M10.46 18a2.23 2.23 0 0 1-.91-.2 1.76 1.76 0 0 1-1.05-1.59V7.79A1.76 1.76 0 0 1 9.55 6.2a2.1 2.1 0 0 1 2.21.26l5.1 4.21a1.7 1.7 0 0 1 0 2.66l-5.1 4.21a2.06 2.06 0 0 1-1.3.46z"/>
    </ng-container>
  </ng-container>
</svg>




